<?xml version="1.0" encoding="us-ascii" standalone="no"?><svg xmlns="http://www.w3.org/2000/svg" xmlns:xlink="http://www.w3.org/1999/xlink" contentStyleType="text/css" height="262px" preserveAspectRatio="none" style="width:573px;height:262px;background:#FFFFFF;" version="1.1" viewBox="0 0 573 262" width="573px" zoomAndPan="magnify"><defs/><g><!--cluster Usuarios--><g id="cluster_Usuarios"><path d="M8.5,6.602 L70.5,6.602 A3.75,3.75 0 0 1 73,9.102 L80,31.6699 L215.5,31.6699 A2.5,2.5 0 0 1 218,34.1699 L218,253.102 A2.5,2.5 0 0 1 215.5,255.602 L8.5,255.602 A2.5,2.5 0 0 1 6,253.102 L6,9.102 A2.5,2.5 0 0 1 8.5,6.602 " fill="none" style="stroke:#000000;stroke-width:1.5;"/><line style="stroke:#000000;stroke-width:1.5;" x1="6" x2="80" y1="31.6699" y2="31.6699"/><text fill="#000000" font-family="sans-serif" font-size="14" font-weight="bold" lengthAdjust="spacing" textLength="61" x="10" y="23.5679">Usuarios</text></g><!--cluster Autenticaci?n y Autorizaci?n--><g id="cluster_Autenticaci&#243;n y Autorizaci&#243;n"><path d="M248.5,40.602 L449.5,40.602 A3.75,3.75 0 0 1 452,43.102 L459,65.6699 L459.5,65.6699 A2.5,2.5 0 0 1 462,68.1699 L462,197.102 A2.5,2.5 0 0 1 459.5,199.602 L248.5,199.602 A2.5,2.5 0 0 1 246,197.102 L246,43.102 A2.5,2.5 0 0 1 248.5,40.602 " fill="none" style="stroke:#000000;stroke-width:1.5;"/><line style="stroke:#000000;stroke-width:1.5;" x1="246" x2="459" y1="65.6699" y2="65.6699"/><text fill="#000000" font-family="sans-serif" font-size="14" font-weight="bold" lengthAdjust="spacing" textLength="200" x="250" y="57.5679">Autenticaci&#243;n y Autorizaci&#243;n</text></g><!--entity Cliente--><g id="elem_Cliente"><ellipse cx="169.5" cy="176.102" fill="#F1F1F1" rx="16" ry="16" style="stroke:#181818;stroke-width:0.5;"/><path d="M169.5,196.102 C173.5,196.102 176.5,196.102 180.5,192.102 C188.5,192.102 196.5,200.102 196.5,208.102 L196.5,212.102 C196.5,216.102 192.5,220.102 188.5,220.102 L150.5,220.102 C146.5,220.102 142.5,216.102 142.5,212.102 L142.5,208.102 C142.5,200.102 150.5,192.102 158.5,192.102 C162.5,196.102 165.5,196.102 169.5,196.102 " fill="#F1F1F1" style="stroke:#181818;stroke-width:0.5;"/><text fill="#000000" font-family="sans-serif" font-size="14" lengthAdjust="spacing" textLength="47" x="146" y="235.5679">Cliente</text></g><!--entity Operador--><g id="elem_Operador"><ellipse cx="169.5" cy="61.102" fill="#F1F1F1" rx="16" ry="16" style="stroke:#181818;stroke-width:0.5;"/><path d="M169.5,81.102 C173.5,81.102 176.5,81.102 180.5,77.102 C188.5,77.102 196.5,85.102 196.5,93.102 L196.5,97.102 C196.5,101.102 192.5,105.102 188.5,105.102 L150.5,105.102 C146.5,105.102 142.5,101.102 142.5,97.102 L142.5,93.102 C142.5,85.102 150.5,77.102 158.5,77.102 C162.5,81.102 165.5,81.102 169.5,81.102 " fill="#F1F1F1" style="stroke:#181818;stroke-width:0.5;"/><text fill="#000000" font-family="sans-serif" font-size="14" lengthAdjust="spacing" textLength="65" x="137" y="120.5679">Operador</text></g><!--entity User--><g id="elem_User"><ellipse cx="49.5" cy="119.102" fill="#F1F1F1" rx="16" ry="16" style="stroke:#181818;stroke-width:0.5;"/><path d="M49.5,139.102 C53.5,139.102 56.5,139.102 60.5,135.102 C68.5,135.102 76.5,143.102 76.5,151.102 L76.5,155.102 C76.5,159.102 72.5,163.102 68.5,163.102 L30.5,163.102 C26.5,163.102 22.5,159.102 22.5,155.102 L22.5,151.102 C22.5,143.102 30.5,135.102 38.5,135.102 C42.5,139.102 45.5,139.102 49.5,139.102 " fill="#F1F1F1" style="stroke:#181818;stroke-width:0.5;"/><text fill="#000000" font-family="sans-serif" font-size="14" lengthAdjust="spacing" textLength="31" x="34" y="178.5679">User</text></g><g id="elem_registro"><ellipse cx="354.151" cy="95.6038" fill="#F1F1F1" rx="66.151" ry="17.0018" style="stroke:#181818;stroke-width:0.5;"/><text fill="#000000" font-family="sans-serif" font-size="14" lengthAdjust="spacing" textLength="74" x="314.151" y="100.3368">registrarse</text></g><g id="elem_login"><ellipse cx="354.0497" cy="165.5119" fill="#F1F1F1" rx="75.0497" ry="17.4099" style="stroke:#181818;stroke-width:0.5;"/><text fill="#000000" font-family="sans-serif" font-size="14" lengthAdjust="spacing" textLength="89" x="306.5497" y="170.2449">iniciar sesi&#243;n</text></g><!--entity Anonimo--><g id="elem_Anonimo"><ellipse cx="536" cy="72.102" fill="#F1F1F1" rx="16" ry="16" style="stroke:#181818;stroke-width:0.5;"/><path d="M536,92.102 C540,92.102 543,92.102 547,88.102 C555,88.102 563,96.102 563,104.102 L563,108.102 C563,112.102 559,116.102 555,116.102 L517,116.102 C513,116.102 509,112.102 509,108.102 L509,104.102 C509,96.102 517,88.102 525,88.102 C529,92.102 532,92.102 536,92.102 " fill="#F1F1F1" style="stroke:#181818;stroke-width:0.5;"/><text fill="#000000" font-family="sans-serif" font-size="14" lengthAdjust="spacing" textLength="60" x="506" y="131.5679">An&#243;nimo</text></g><!--reverse link User to Cliente--><g id="link_User_Cliente"><path d="M93.4873,163.3629 C112.7973,172.6929 122.54,177.402 141.83,186.722 " fill="none" id="User-backto-Cliente" style="stroke:#181818;stroke-width:1.0;"/><polygon fill="none" points="77.28,155.532,90.877,168.7653,96.0976,157.9604,77.28,155.532" style="stroke:#181818;stroke-width:1.0;"/></g><!--reverse link User to Operador--><g id="link_User_Operador"><path d="M93.4341,121.502 C111.1141,112.812 118.2,109.322 136.81,100.182 " fill="none" id="User-backto-Operador" style="stroke:#181818;stroke-width:1.0;"/><polygon fill="none" points="77.28,129.442,96.0808,126.8867,90.7875,116.1173,77.28,129.442" style="stroke:#181818;stroke-width:1.0;"/></g><!--reverse link registro to Anonimo--><g id="link_registro_Anonimo"><path d="M426.24,95.602 C455.62,95.602 482.81,95.602 505.92,95.602 " fill="none" id="registro-backto-Anonimo" style="stroke:#181818;stroke-width:1.0;"/><polygon fill="#181818" points="420.24,95.602,429.24,99.602,425.24,95.602,429.24,91.602,420.24,95.602" style="stroke:#181818;stroke-width:1.0;"/></g><!--link Cliente to login--><g id="link_Cliente_login"><path d="M197.04,194.662 C222.54,189.902 256.0514,183.6604 288.8614,177.5504 " fill="none" id="Cliente-to-login" style="stroke:#181818;stroke-width:1.0;"/><polygon fill="#181818" points="294.76,176.452,285.1798,174.1673,289.8445,177.3674,286.6444,182.0321,294.76,176.452" style="stroke:#181818;stroke-width:1.0;"/></g><!--link Operador to login--><g id="link_Operador_login"><path d="M202.01,108.302 C213,115.822 225.67,123.712 238,129.602 C258.1,139.202 275.616,145.3857 295.956,151.2657 " fill="none" id="Operador-to-login" style="stroke:#181818;stroke-width:1.0;"/><polygon fill="#181818" points="301.72,152.932,294.1849,146.5899,296.9167,151.5434,291.9632,154.2752,301.72,152.932" style="stroke:#181818;stroke-width:1.0;"/></g><!--SRC=[JO_DRSCm34Rld8BmNHi41OmEq4EH0GY5TOZOea7IADAVgJf25ujYEx5l-XwUo8yzVmI6eabt3Zo9SGxH0dwHCfBHW9H3xJskFIDzikl00313RDho_rTaq0R9iIrwVmECb2_KCHvz8XDr_0PSnk1hBro2d_bjPAEJ6bHoT3Oy_AIqipRsD7zXsz2qKrHJCcMfJV2A5QZ9rvARUVFadCchRDo9Xv4vpuNNh7j7YcGXGsTV9bIlrqxAVUzw8QPfJ2_RzxKkfWeNzr5sXsu0]--></g></svg>