<?xml version="1.0" encoding="us-ascii" standalone="no"?><svg xmlns="http://www.w3.org/2000/svg" xmlns:xlink="http://www.w3.org/1999/xlink" contentStyleType="text/css" height="474px" preserveAspectRatio="none" style="width:445px;height:474px;background:#FFFFFF;" version="1.1" viewBox="0 0 445 474" width="445px" zoomAndPan="magnify"><defs/><g><!--cluster Gestor de ventas--><g id="cluster_Gestor de ventas"><rect fill="#C2F0FF" height="461" rx="2.5" ry="2.5" style="stroke:#181818;stroke-width:1.0;" width="283" x="156.5" y="7"/><text fill="#000000" font-family="sans-serif" font-size="14" font-weight="bold" lengthAdjust="spacing" textLength="117" x="239.5" y="23.9659">Gestor de ventas</text></g><g id="elem_consultarPedidos"><ellipse cx="297.9255" cy="430.0851" fill="#87CEEB" rx="95.9255" ry="21.5851" style="stroke:#87CEFA;stroke-width:0.5;"/><text fill="#000000" font-family="sans-serif" font-size="14" font-weight="bold" lengthAdjust="spacing" textLength="18" x="222.4255" y="434.8181">(1)</text><text fill="#000000" font-family="sans-serif" font-size="14" lengthAdjust="spacing" textLength="123" x="244.4255" y="434.8181">Consultar pedidos</text></g><g id="elem_registrarPedido"><ellipse cx="297.9052" cy="69.181" fill="#87CEEB" rx="108.9052" ry="24.181" style="stroke:#87CEFA;stroke-width:0.5;"/><text fill="#000000" font-family="sans-serif" font-size="14" font-weight="bold" lengthAdjust="spacing" textLength="18" x="206.9052" y="73.914">(2)</text><text fill="#000000" font-family="sans-serif" font-size="14" lengthAdjust="spacing" textLength="158" x="224.9052" y="73.914">Registrar nuevo pedido</text></g><g id="elem_editarPedido"><ellipse cx="297.9695" cy="166.1939" fill="#87CEEB" rx="86.4695" ry="19.6939" style="stroke:#87CEFA;stroke-width:0.5;"/><text fill="#000000" font-family="sans-serif" font-size="14" font-weight="bold" lengthAdjust="spacing" textLength="30" x="234.4695" y="170.9269">(2.1)</text><text fill="#000000" font-family="sans-serif" font-size="14" lengthAdjust="spacing" textLength="91" x="264.4695" y="170.9269">Editar pedido</text></g><g id="elem_buscarProductos"><ellipse cx="298.1483" cy="260.8297" fill="#87CEEB" rx="97.1483" ry="21.8297" style="stroke:#87CEFA;stroke-width:0.5;"/><text fill="#000000" font-family="sans-serif" font-size="14" font-weight="bold" lengthAdjust="spacing" textLength="30" x="221.1483" y="265.5626">(2.2)</text><text fill="#000000" font-family="sans-serif" font-size="14" lengthAdjust="spacing" textLength="118" x="251.1483" y="265.5626">Buscar productos</text></g><g id="elem_agregarProducto"><ellipse cx="298.1833" cy="346.0367" fill="#87CEEB" rx="125.6833" ry="27.5367" style="stroke:#87CEFA;stroke-width:0.5;"/><text fill="#000000" font-family="sans-serif" font-size="14" font-weight="bold" lengthAdjust="spacing" textLength="30" x="189.967" y="350.0453">(2.3)</text><text fill="#000000" font-family="sans-serif" font-size="14" lengthAdjust="spacing" textLength="184" x="219.967" y="350.0453">Agregar producto al carrito</text></g><!--entity Cliente--><g id="elem_Cliente"><ellipse cx="33" cy="292.0679" fill="#C2F0FF" rx="16" ry="16" style="stroke:#181818;stroke-width:0.5;"/><path d="M33,312.0679 C37,312.0679 40,312.0679 44,308.0679 C52,308.0679 60,316.0679 60,324.0679 L60,328.0679 C60,332.0679 56,336.0679 52,336.0679 L14,336.0679 C10,336.0679 6,332.0679 6,328.0679 L6,324.0679 C6,316.0679 14,308.0679 22,308.0679 C26,312.0679 29,312.0679 33,312.0679 " fill="#C2F0FF" style="stroke:#181818;stroke-width:0.5;"/><text fill="#000000" font-family="sans-serif" font-size="14" lengthAdjust="spacing" textLength="47" x="9.5" y="351.5339">Cliente</text><text fill="#000000" font-family="sans-serif" font-size="14" font-style="italic" lengthAdjust="spacing" textLength="42" x="12" y="271.4659">&#171;User&#187;</text></g><!--link editarPedido to registrarPedido--><g id="link_editarPedido_registrarPedido"><path d="M298,146.37 C298,130.98 298,115.49 298,99.07 " fill="none" id="editarPedido-to-registrarPedido" style="stroke:#181818;stroke-width:1.0;stroke-dasharray:7.0,7.0;"/><polygon fill="#181818" points="298,93.07,294,102.07,298,98.07,302,102.07,298,93.07" style="stroke:#181818;stroke-width:1.0;"/><text fill="#000000" font-family="sans-serif" font-size="13" lengthAdjust="spacing" textLength="48" x="261.5" y="125.147">extends</text></g><!--link buscarProductos to editarPedido--><g id="link_buscarProductos_editarPedido"><path d="M298,238.97 C298,222.85 298,207.18 298,191.66 " fill="none" id="buscarProductos-to-editarPedido" style="stroke:#181818;stroke-width:1.0;stroke-dasharray:7.0,7.0;"/><polygon fill="#181818" points="298,185.66,294,194.66,298,190.66,302,194.66,298,185.66" style="stroke:#181818;stroke-width:1.0;"/><text fill="#000000" font-family="sans-serif" font-size="13" lengthAdjust="spacing" textLength="48" x="261.5" y="217.647">extends</text></g><!--link agregarProducto to editarPedido--><g id="link_agregarProducto_editarPedido"><path d="M172.19,345.99 C152.27,340.24 133.87,330.45 120.5,314.5 C100.07,290.13 103.23,265.95 148.5,221 C170.38,199.27 195.7884,187.6797 224.0184,179.6597 " fill="none" id="agregarProducto-to-editarPedido" style="stroke:#181818;stroke-width:1.0;stroke-dasharray:7.0,7.0;"/><polygon fill="#181818" points="229.79,178.02,220.0395,176.6318,224.9803,179.3864,222.2257,184.3273,229.79,178.02" style="stroke:#181818;stroke-width:1.0;"/><text fill="#000000" font-family="sans-serif" font-size="13" lengthAdjust="spacing" textLength="48" x="91.5" y="310.397">extends</text></g><!--link Cliente to consultarPedidos--><g id="link_Cliente_consultarPedidos"><path d="M60.75,330.54 C82.81,349.56 115.69,375.25 148.5,391 C171.69,402.14 192.6629,408.9901 217.0729,414.9801 " fill="none" id="Cliente-to-consultarPedidos" style="stroke:#181818;stroke-width:1.0;"/><polygon fill="#181818" points="222.9,416.41,215.1126,410.3804,218.0441,415.2184,213.206,418.1499,222.9,416.41" style="stroke:#181818;stroke-width:1.0;"/></g><!--link Cliente to registrarPedido--><g id="link_Cliente_registrarPedido"><path d="M55.64,256.49 C74.99,217.26 106.74,163.49 148.5,129 C171.23,110.23 194.9319,98.7166 221.5419,89.3266 " fill="none" id="Cliente-to-registrarPedido" style="stroke:#181818;stroke-width:1.0;"/><polygon fill="#181818" points="227.2,87.33,217.3819,86.5528,222.485,88.9938,220.044,94.0969,227.2,87.33" style="stroke:#181818;stroke-width:1.0;"/></g><!--link Cliente to buscarProductos--><g id="link_Cliente_buscarProductos"><path d="M60.7,295.81 C70.02,292.58 80.61,289.26 90.5,287 C128.1,278.4 164.2861,273.1075 200.6561,269.0975 " fill="none" id="Cliente-to-buscarProductos" style="stroke:#181818;stroke-width:1.0;"/><polygon fill="#181818" points="206.62,268.44,197.2358,265.4504,201.6501,268.988,198.1126,273.4022,206.62,268.44" style="stroke:#181818;stroke-width:1.0;"/></g><!--link Cliente to agregarProducto--><g id="link_Cliente_agregarProducto"><path d="M60.52,314.46 C69.91,317.2 80.6,320.04 90.5,322 C119.71,327.79 145.5712,331.6485 175.3012,335.1485 " fill="none" id="Cliente-to-agregarProducto" style="stroke:#181818;stroke-width:1.0;"/><polygon fill="#181818" points="181.26,335.85,172.7894,330.8252,176.2943,335.2654,171.8541,338.7703,181.26,335.85" style="stroke:#181818;stroke-width:1.0;"/></g><!--SRC=[TP7TIWCn48NlynH3lT6BLjGxMHQsYqYXw6Br0TBDk8QcISbFjOZlRdvS6bDwUyvySquc0jyjM0MQ3nyM6DVOMwuaCHikTrJJBT3UAhso1u50Fz6eBMQcCzXJW_1D0EQqtmnQESbQ9PI6rUOm5mw3epH3dTHb21gj7qBYUcW5HsaHgkhDeAvhk6YwRhbeczV5ynCXeHMLWwymUKGJ08QmzmGrat-ZiSXOQbAjwykRg-fwNKEhf772KWqxP9mfpr43_QXsIIpXsmY_uC2DrPwL3lVgRqDSe4ShBJZXPod-WV5ZT0GnAkUeb3jtfW-KLipvAwNAwoXsetRAtaMs6Nor30Ogm7EQsvHFap_k2J-HLu9PNRxj7l3BecI651N2RCuU1ukGyuDa_F_fj3xzbDmi3vvxvMbohtplBm00]--></g></svg>