<?xml version="1.0" encoding="us-ascii" standalone="no"?><svg xmlns="http://www.w3.org/2000/svg" xmlns:xlink="http://www.w3.org/1999/xlink" contentStyleType="text/css" height="609px" preserveAspectRatio="none" style="width:610px;height:609px;background:#FFFFFF;" version="1.1" viewBox="0 0 610 609" width="610px" zoomAndPan="magnify"><defs/><g><!--cluster Usuarios--><g id="cluster_Usuarios"><path d="M8.5,132.602 L70.5,132.602 A3.75,3.75 0 0 1 73,135.102 L80,157.6699 L215.5,157.6699 A2.5,2.5 0 0 1 218,160.1699 L218,379.102 A2.5,2.5 0 0 1 215.5,381.602 L8.5,381.602 A2.5,2.5 0 0 1 6,379.102 L6,135.102 A2.5,2.5 0 0 1 8.5,132.602 " fill="#FFFFCC" style="stroke:#000000;stroke-width:1.5;"/><line style="stroke:#000000;stroke-width:1.5;" x1="6" x2="80" y1="157.6699" y2="157.6699"/><text fill="#000000" font-family="sans-serif" font-size="14" font-weight="bold" lengthAdjust="spacing" textLength="61" x="10" y="149.5679">Usuarios</text></g><!--cluster Lacandon--><g id="cluster_Lacandon"><path d="M248.5,6.602 L316.5,6.602 A3.75,3.75 0 0 1 319,9.102 L326,31.6699 L496.5,31.6699 A2.5,2.5 0 0 1 499,34.1699 L499,600.102 A2.5,2.5 0 0 1 496.5,602.602 L248.5,602.602 A2.5,2.5 0 0 1 246,600.102 L246,9.102 A2.5,2.5 0 0 1 248.5,6.602 " fill="none" style="stroke:#000000;stroke-width:1.5;"/><line style="stroke:#000000;stroke-width:1.5;" x1="246" x2="326" y1="31.6699" y2="31.6699"/><text fill="#000000" font-family="sans-serif" font-size="14" font-weight="bold" lengthAdjust="spacing" textLength="67" x="250" y="23.5679">Lacandon</text></g><!--entity User--><g id="elem_User"><ellipse cx="49.5" cy="245.102" fill="#F1F1F1" rx="16" ry="16" style="stroke:#181818;stroke-width:0.5;"/><path d="M49.5,265.102 C53.5,265.102 56.5,265.102 60.5,261.102 C68.5,261.102 76.5,269.102 76.5,277.102 L76.5,281.102 C76.5,285.102 72.5,289.102 68.5,289.102 L30.5,289.102 C26.5,289.102 22.5,285.102 22.5,281.102 L22.5,277.102 C22.5,269.102 30.5,261.102 38.5,261.102 C42.5,265.102 45.5,265.102 49.5,265.102 " fill="#F1F1F1" style="stroke:#181818;stroke-width:0.5;"/><text fill="#000000" font-family="sans-serif" font-size="14" lengthAdjust="spacing" textLength="31" x="34" y="304.5679">User</text></g><!--entity Operador--><g id="elem_Operador"><ellipse cx="169.5" cy="302.102" fill="#FFE0E0" rx="16" ry="16" style="stroke:#181818;stroke-width:0.5;"/><path d="M169.5,322.102 C173.5,322.102 176.5,322.102 180.5,318.102 C188.5,318.102 196.5,326.102 196.5,334.102 L196.5,338.102 C196.5,342.102 192.5,346.102 188.5,346.102 L150.5,346.102 C146.5,346.102 142.5,342.102 142.5,338.102 L142.5,334.102 C142.5,326.102 150.5,318.102 158.5,318.102 C162.5,322.102 165.5,322.102 169.5,322.102 " fill="#FFE0E0" style="stroke:#181818;stroke-width:0.5;"/><text fill="#000000" font-family="sans-serif" font-size="14" lengthAdjust="spacing" textLength="65" x="137" y="361.5679">Operador</text></g><!--entity Cliente--><g id="elem_Cliente"><ellipse cx="169.5" cy="187.102" fill="#C2F0FF" rx="16" ry="16" style="stroke:#181818;stroke-width:0.5;"/><path d="M169.5,207.102 C173.5,207.102 176.5,207.102 180.5,203.102 C188.5,203.102 196.5,211.102 196.5,219.102 L196.5,223.102 C196.5,227.102 192.5,231.102 188.5,231.102 L150.5,231.102 C146.5,231.102 142.5,227.102 142.5,223.102 L142.5,219.102 C142.5,211.102 150.5,203.102 158.5,203.102 C162.5,207.102 165.5,207.102 169.5,207.102 " fill="#C2F0FF" style="stroke:#181818;stroke-width:0.5;"/><text fill="#000000" font-family="sans-serif" font-size="14" lengthAdjust="spacing" textLength="47" x="146" y="246.5679">Cliente</text></g><!--entity auth--><g id="elem_auth"><path d="M264.5,237.102 L309.5,237.102 A3.75,3.75 0 0 1 312,239.602 L319,262.1699 L480.5,262.1699 A2.5,2.5 0 0 1 483,264.6699 L483,295.7378 A2.5,2.5 0 0 1 480.5,298.2378 L264.5,298.2378 A2.5,2.5 0 0 1 262,295.7378 L262,239.602 A2.5,2.5 0 0 1 264.5,237.102 " fill="#FFE0E0" style="stroke:#181818;stroke-width:0.5;"/><line style="stroke:#181818;stroke-width:0.5;" x1="262" x2="319" y1="262.1699" y2="262.1699"/><text fill="#000000" font-family="sans-serif" font-size="14" font-weight="bold" lengthAdjust="spacing" textLength="32" x="272" y="255.0679">auth</text><text fill="#000000" font-family="sans-serif" font-size="14" lengthAdjust="spacing" textLength="191" x="272" y="284.1358">Autenticaci&#243;n y Autorizaci&#243;n</text></g><!--entity ventas--><g id="elem_ventas"><path d="M303.5,45.102 L362.5,45.102 A3.75,3.75 0 0 1 365,47.602 L372,70.1699 L441.5,70.1699 A2.5,2.5 0 0 1 444,72.6699 L444,103.7378 A2.5,2.5 0 0 1 441.5,106.2378 L303.5,106.2378 A2.5,2.5 0 0 1 301,103.7378 L301,47.602 A2.5,2.5 0 0 1 303.5,45.102 " fill="#C2F0FF" style="stroke:#181818;stroke-width:0.5;"/><line style="stroke:#181818;stroke-width:0.5;" x1="301" x2="372" y1="70.1699" y2="70.1699"/><text fill="#000000" font-family="sans-serif" font-size="14" font-weight="bold" lengthAdjust="spacing" textLength="46" x="311" y="63.0679">ventas</text><text fill="#000000" font-family="sans-serif" font-size="14" lengthAdjust="spacing" textLength="113" x="311" y="92.1358">Gestor de ventas</text></g><!--entity operaciones--><g id="elem_operaciones"><path d="M284.5,525.102 L381.5,525.102 A3.75,3.75 0 0 1 384,527.602 L391,550.1699 L460.5,550.1699 A2.5,2.5 0 0 1 463,552.6699 L463,583.7378 A2.5,2.5 0 0 1 460.5,586.2378 L284.5,586.2378 A2.5,2.5 0 0 1 282,583.7378 L282,527.602 A2.5,2.5 0 0 1 284.5,525.102 " fill="#C2F0FF" style="stroke:#181818;stroke-width:0.5;"/><line style="stroke:#181818;stroke-width:0.5;" x1="282" x2="391" y1="550.1699" y2="550.1699"/><text fill="#000000" font-family="sans-serif" font-size="14" font-weight="bold" lengthAdjust="spacing" textLength="84" x="292" y="543.0679">operaciones</text><text fill="#000000" font-family="sans-serif" font-size="14" lengthAdjust="spacing" textLength="151" x="292" y="572.1358">Gestor de operaciones</text></g><!--entity quejas--><g id="elem_quejas"><path d="M303,141.102 L361,141.102 A3.75,3.75 0 0 1 363.5,143.602 L370.5,166.1699 L442,166.1699 A2.5,2.5 0 0 1 444.5,168.6699 L444.5,199.7378 A2.5,2.5 0 0 1 442,202.2378 L303,202.2378 A2.5,2.5 0 0 1 300.5,199.7378 L300.5,143.602 A2.5,2.5 0 0 1 303,141.102 " fill="#C2F0FF" style="stroke:#181818;stroke-width:0.5;"/><line style="stroke:#181818;stroke-width:0.5;" x1="300.5" x2="370.5" y1="166.1699" y2="166.1699"/><text fill="#000000" font-family="sans-serif" font-size="14" font-weight="bold" lengthAdjust="spacing" textLength="45" x="310.5" y="159.0679">quejas</text><text fill="#000000" font-family="sans-serif" font-size="14" lengthAdjust="spacing" textLength="114" x="310.5" y="188.1358">Gestor de quejas</text></g><!--entity inventario--><g id="elem_inventario"><path d="M291.5,429.102 L375.5,429.102 A3.75,3.75 0 0 1 378,431.602 L385,454.1699 L453.5,454.1699 A2.5,2.5 0 0 1 456,456.6699 L456,487.7378 A2.5,2.5 0 0 1 453.5,490.2378 L291.5,490.2378 A2.5,2.5 0 0 1 289,487.7378 L289,431.602 A2.5,2.5 0 0 1 291.5,429.102 " fill="#C2F0FF" style="stroke:#181818;stroke-width:0.5;"/><line style="stroke:#181818;stroke-width:0.5;" x1="289" x2="385" y1="454.1699" y2="454.1699"/><text fill="#000000" font-family="sans-serif" font-size="14" font-weight="bold" lengthAdjust="spacing" textLength="71" x="299" y="447.0679">inventario</text><text fill="#000000" font-family="sans-serif" font-size="14" lengthAdjust="spacing" textLength="137" x="299" y="476.1358">Gestor de inventario</text></g><!--entity proveedores--><g id="elem_proveedores"><path d="M283.5,333.102 L383.5,333.102 A3.75,3.75 0 0 1 386,335.602 L393,358.1699 L461.5,358.1699 A2.5,2.5 0 0 1 464,360.6699 L464,391.7378 A2.5,2.5 0 0 1 461.5,394.2378 L283.5,394.2378 A2.5,2.5 0 0 1 281,391.7378 L281,335.602 A2.5,2.5 0 0 1 283.5,333.102 " fill="#C2F0FF" style="stroke:#181818;stroke-width:0.5;"/><line style="stroke:#181818;stroke-width:0.5;" x1="281" x2="393" y1="358.1699" y2="358.1699"/><text fill="#000000" font-family="sans-serif" font-size="14" font-weight="bold" lengthAdjust="spacing" textLength="87" x="291" y="351.0679">proveedores</text><text fill="#000000" font-family="sans-serif" font-size="14" lengthAdjust="spacing" textLength="153" x="291" y="380.1358">Gestor de proveedores</text></g><!--entity Anonimo--><g id="elem_Anonimo"><ellipse cx="573" cy="244.102" fill="#F1F1F1" rx="16" ry="16" style="stroke:#181818;stroke-width:0.5;"/><path d="M573,264.102 C577,264.102 580,264.102 584,260.102 C592,260.102 600,268.102 600,276.102 L600,280.102 C600,284.102 596,288.102 592,288.102 L554,288.102 C550,288.102 546,284.102 546,280.102 L546,276.102 C546,268.102 554,260.102 562,260.102 C566,264.102 569,264.102 573,264.102 " fill="#F1F1F1" style="stroke:#181818;stroke-width:0.5;"/><text fill="#000000" font-family="sans-serif" font-size="14" lengthAdjust="spacing" textLength="60" x="543" y="303.5679">An&#243;nimo</text></g><!--reverse link User to Operador--><g id="link_User_Operador"><path d="M93.4882,289.3611 C111.1682,297.9011 118.2,301.302 136.81,310.292 " fill="none" id="User-backto-Operador" style="stroke:#181818;stroke-width:1.0;"/><polygon fill="none" points="77.28,281.532,90.8785,294.7638,96.0979,283.9583,77.28,281.532" style="stroke:#181818;stroke-width:1.0;"/></g><!--reverse link User to Cliente--><g id="link_User_Cliente"><path d="M93.4345,247.5028 C112.7445,238.0128 122.54,233.192 141.83,223.712 " fill="none" id="User-backto-Cliente" style="stroke:#181818;stroke-width:1.0;"/><polygon fill="none" points="77.28,255.442,96.0809,252.8876,90.7881,242.1179,77.28,255.442" style="stroke:#181818;stroke-width:1.0;"/></g><!--reverse link auth to Anonimo--><g id="link_auth_Anonimo"><path d="M489.2,267.602 C511.26,267.602 526.62,267.602 542.86,267.602 " fill="none" id="auth-backto-Anonimo" style="stroke:#181818;stroke-width:1.0;"/><polygon fill="#181818" points="483.2,267.602,492.2,271.602,488.2,267.602,492.2,263.602,483.2,267.602" style="stroke:#181818;stroke-width:1.0;"/></g><!--link Cliente to auth--><g id="link_Cliente_auth"><path d="M197.19,218.172 C214.7,223.142 233.1078,228.3544 257.8878,235.3844 " fill="none" id="Cliente-to-auth" style="stroke:#181818;stroke-width:1.0;"/><polygon fill="#181818" points="263.66,237.022,256.0934,230.7175,258.8498,235.6574,253.91,238.4138,263.66,237.022" style="stroke:#181818;stroke-width:1.0;"/></g><!--link Cliente to ventas--><g id="link_Cliente_ventas"><path d="M194.41,170.482 C205.86,154.082 220.83,136.072 238,123.602 C256.63,110.072 273.7902,101.9558 295.2602,94.6458 " fill="none" id="Cliente-to-ventas" style="stroke:#181818;stroke-width:1.0;"/><polygon fill="#181818" points="300.94,92.712,291.1311,91.8262,296.2068,94.3235,293.7095,99.3993,300.94,92.712" style="stroke:#181818;stroke-width:1.0;"/></g><!--link Cliente to quejas--><g id="link_Cliente_quejas"><path d="M197.19,205.422 C223.35,200.342 258.4997,193.5241 294.1897,186.6041 " fill="none" id="Cliente-to-quejas" style="stroke:#181818;stroke-width:1.0;"/><polygon fill="#181818" points="300.08,185.462,290.4832,183.2482,295.1714,186.4137,292.0059,191.102,300.08,185.462" style="stroke:#181818;stroke-width:1.0;"/></g><!--link Operador to auth--><g id="link_Operador_auth"><path d="M202.35,316.412 C219.73,311.392 236.5855,306.5365 259.6155,299.8865 " fill="none" id="Operador-to-auth" style="stroke:#181818;stroke-width:1.0;"/><polygon fill="#181818" points="265.38,298.222,255.6236,296.8758,260.5763,299.6091,257.8429,304.5618,265.38,298.222" style="stroke:#181818;stroke-width:1.0;"/></g><!--link Operador to operaciones--><g id="link_Operador_operaciones"><path d="M175.43,365.662 C182.48,406.512 199.2,469.192 238,507.602 C250.25,519.732 260.2615,526.4904 276.3615,533.2804 " fill="none" id="Operador-to-operaciones" style="stroke:#181818;stroke-width:1.0;"/><polygon fill="#181818" points="281.89,535.612,275.1517,528.429,277.283,533.669,272.0429,535.8003,281.89,535.612" style="stroke:#181818;stroke-width:1.0;"/></g><!--link Operador to quejas--><g id="link_Operador_quejas"><path d="M202.02,298.512 C210.9,289.472 219.81,278.832 226,267.602 C236.62,248.352 223.25,235.912 238,219.602 C254.19,201.702 271.8199,192.2514 294.4899,185.2114 " fill="none" id="Operador-to-quejas" style="stroke:#181818;stroke-width:1.0;"/><polygon fill="#181818" points="300.22,183.432,290.4386,182.2811,295.4449,184.9148,292.8112,189.9212,300.22,183.432" style="stroke:#181818;stroke-width:1.0;"/></g><!--link Operador to inventario--><g id="link_Operador_inventario"><path d="M194.8,365.692 C206.23,381.782 221.07,399.382 238,411.602 C253.18,422.562 265.5076,429.094 283.2176,435.884 " fill="none" id="Operador-to-inventario" style="stroke:#181818;stroke-width:1.0;"/><polygon fill="#181818" points="288.82,438.032,281.8484,431.0752,284.1514,436.242,278.9845,438.545,288.82,438.032" style="stroke:#181818;stroke-width:1.0;"/></g><!--link Operador to proveedores--><g id="link_Operador_proveedores"><path d="M202.35,331.622 C223.6,335.642 246.8045,340.0271 274.8845,345.3371 " fill="none" id="Operador-to-proveedores" style="stroke:#181818;stroke-width:1.0;"/><polygon fill="#181818" points="280.78,346.452,272.68,340.8494,275.8671,345.5229,271.1935,348.71,280.78,346.452" style="stroke:#181818;stroke-width:1.0;"/></g><!--SRC=[ZL9RRiCW4Fpd52ldspUeAhbHL5dAIt9oW1NU9ZGEE81JfOzJzGYzM34un4ZvoD_kBBFC33JqPi4gq6Atjr0BJTmA9Pav2DcYnYCWjqfNzj8Gu0SPTIJ6F0PP8Vz-fJYg3D108LLVCzOYF-2EO6iwr48PcBnigt8vgohuOX3skI7fsAnQqbYxOb8krlFPOhRS59jojOm7feqWQGacnNezBwTXwARz5dZwplEu8W476lkvYShco57MIcPUJ8IBphgZWYCNpXDSm05AYy_GUuFOsVqTXN75AvbUQqrmTglGU58eK-5tEQetm5tq58YZ_W7sgQFtuSPGFi0HqejpJ-Hvj_O1RglLcSZbFQWTzIdRHJzy3CYxDd_sAJ9sVT3yYeo1a5a21LECnPyIYGao2YqT3Fm4knbEyP4Nnlu1]--></g></svg>