<?xml version="1.0" encoding="us-ascii" standalone="no"?><svg xmlns="http://www.w3.org/2000/svg" xmlns:xlink="http://www.w3.org/1999/xlink" contentStyleType="text/css" height="487px" preserveAspectRatio="none" style="width:552px;height:487px;background:#FFFFFF;" version="1.1" viewBox="0 0 552 487" width="552px" zoomAndPan="magnify"><defs/><g><!--cluster Usuarios--><g id="cluster_Usuarios"><path d="M8.5,186.602 L70.5,186.602 A3.75,3.75 0 0 1 73,189.102 L80,211.6699 L216.5,211.6699 A2.5,2.5 0 0 1 219,214.1699 L219,318.102 A2.5,2.5 0 0 1 216.5,320.602 L8.5,320.602 A2.5,2.5 0 0 1 6,318.102 L6,189.102 A2.5,2.5 0 0 1 8.5,186.602 " fill="#FFFFCC" style="stroke:#000000;stroke-width:1.5;"/><line style="stroke:#000000;stroke-width:1.5;" x1="6" x2="80" y1="211.6699" y2="211.6699"/><text fill="#000000" font-family="sans-serif" font-size="14" font-weight="bold" lengthAdjust="spacing" textLength="61" x="10" y="203.5679">Usuarios</text></g><!--cluster Gestor de proveedores--><g id="cluster_Gestor de proveedores"><path d="M254.5,6.602 L413.5,6.602 A3.75,3.75 0 0 1 416,9.102 L423,31.6699 L542.5,31.6699 A2.5,2.5 0 0 1 545,34.1699 L545,478.102 A2.5,2.5 0 0 1 542.5,480.602 L254.5,480.602 A2.5,2.5 0 0 1 252,478.102 L252,9.102 A2.5,2.5 0 0 1 254.5,6.602 " fill="#C2F0FF" style="stroke:#000000;stroke-width:1.5;"/><line style="stroke:#000000;stroke-width:1.5;" x1="252" x2="423" y1="31.6699" y2="31.6699"/><text fill="#000000" font-family="sans-serif" font-size="14" font-weight="bold" lengthAdjust="spacing" textLength="158" x="256" y="23.5679">Gestor de proveedores</text></g><!--entity Operador--><g id="elem_Operador"><ellipse cx="170.5" cy="241.102" fill="#FFE0E0" rx="16" ry="16" style="stroke:#181818;stroke-width:0.5;"/><path d="M170.5,261.102 C174.5,261.102 177.5,261.102 181.5,257.102 C189.5,257.102 197.5,265.102 197.5,273.102 L197.5,277.102 C197.5,281.102 193.5,285.102 189.5,285.102 L151.5,285.102 C147.5,285.102 143.5,281.102 143.5,277.102 L143.5,273.102 C143.5,265.102 151.5,257.102 159.5,257.102 C163.5,261.102 166.5,261.102 170.5,261.102 " fill="#FFE0E0" style="stroke:#181818;stroke-width:0.5;"/><text fill="#000000" font-family="sans-serif" font-size="14" lengthAdjust="spacing" textLength="65" x="138" y="300.5679">Operador</text></g><!--entity User--><g id="elem_User"><ellipse cx="49.5" cy="241.102" fill="#F1F1F1" rx="16" ry="16" style="stroke:#181818;stroke-width:0.5;"/><path d="M49.5,261.102 C53.5,261.102 56.5,261.102 60.5,257.102 C68.5,257.102 76.5,265.102 76.5,273.102 L76.5,277.102 C76.5,281.102 72.5,285.102 68.5,285.102 L30.5,285.102 C26.5,285.102 22.5,281.102 22.5,277.102 L22.5,273.102 C22.5,265.102 30.5,257.102 38.5,257.102 C42.5,261.102 45.5,261.102 49.5,261.102 " fill="#F1F1F1" style="stroke:#181818;stroke-width:0.5;"/><text fill="#000000" font-family="sans-serif" font-size="14" lengthAdjust="spacing" textLength="31" x="34" y="300.5679">User</text></g><g id="elem_consultarProveedores"><ellipse cx="398.4758" cy="264.6972" fill="#87CEEB" rx="108.4758" ry="24.0952" style="stroke:#87CEFA;stroke-width:0.5;"/><text fill="#000000" font-family="sans-serif" font-size="14" font-weight="bold" lengthAdjust="spacing" textLength="18" x="307.9758" y="269.4301">(1)</text><text fill="#000000" font-family="sans-serif" font-size="14" lengthAdjust="spacing" textLength="153" x="329.9758" y="269.4301">Consultar proveedores</text></g><g id="elem_registrarProveedor"><ellipse cx="398.2693" cy="352.5558" fill="#87CEEB" rx="130.2693" ry="28.4539" style="stroke:#87CEFA;stroke-width:0.5;"/><text fill="#000000" font-family="sans-serif" font-size="14" font-weight="bold" lengthAdjust="spacing" textLength="18" x="285.8817" y="356.1797">(2)</text><text fill="#000000" font-family="sans-serif" font-size="14" lengthAdjust="spacing" textLength="202" x="307.8817" y="356.1797">Registrar un nuevo proveedor</text></g><g id="elem_verProveedor"><ellipse cx="398.6812" cy="175.5681" fill="#87CEEB" rx="90.6812" ry="29.9661" style="stroke:#87CEFA;stroke-width:0.5;"/><text fill="#000000" font-family="sans-serif" font-size="14" font-weight="bold" lengthAdjust="spacing" textLength="18" x="349.1812" y="169.4661">(3)</text><text fill="#000000" font-family="sans-serif" font-size="14" lengthAdjust="spacing" textLength="73" x="371.1812" y="169.4661">Ver Detalle</text><text fill="#000000" font-family="sans-serif" font-size="14" lengthAdjust="spacing" textLength="112" x="342.6812" y="188.534">de un proveedor</text></g><g id="elem_editarProveedor"><ellipse cx="398.4133" cy="68.6846" fill="#87CEEB" rx="105.9133" ry="23.5827" style="stroke:#87CEFA;stroke-width:0.5;"/><text fill="#000000" font-family="sans-serif" font-size="14" font-weight="bold" lengthAdjust="spacing" textLength="30" x="310.9133" y="73.4176">(3.1)</text><text fill="#000000" font-family="sans-serif" font-size="14" lengthAdjust="spacing" textLength="135" x="344.9133" y="73.4176">Editar un proveedor</text></g><g id="elem_eliminarProveedor"><ellipse cx="398.6191" cy="440.5258" fill="#87CEEB" rx="107.6191" ry="23.9238" style="stroke:#87CEFA;stroke-width:0.5;"/><text fill="#000000" font-family="sans-serif" font-size="14" font-weight="bold" lengthAdjust="spacing" textLength="18" x="309.1191" y="445.2588">(4)</text><text fill="#000000" font-family="sans-serif" font-size="14" lengthAdjust="spacing" textLength="151" x="331.1191" y="445.2588">Eliminar un proveedor</text></g><!--reverse link User to Operador--><g id="link_User_Operador"><path d="M95.21,264.602 C113.16,264.602 118.91,264.602 137.82,264.602 " fill="none" id="User-backto-Operador" style="stroke:#181818;stroke-width:1.0;"/><polygon fill="none" points="77.21,264.602,95.21,270.602,95.21,258.602,77.21,264.602" style="stroke:#181818;stroke-width:1.0;"/></g><!--link editarProveedor to verProveedor--><g id="link_editarProveedor_verProveedor"><path d="M398.5,92.372 C398.5,108.042 398.5,122.702 398.5,139.512 " fill="none" id="editarProveedor-to-verProveedor" style="stroke:#181818;stroke-width:1.0;stroke-dasharray:7.0,7.0;"/><polygon fill="#181818" points="398.5,145.512,402.5,136.512,398.5,140.512,394.5,136.512,398.5,145.512" style="stroke:#181818;stroke-width:1.0;"/><text fill="#000000" font-family="sans-serif" font-size="13" lengthAdjust="spacing" textLength="42" x="365" y="124.249">extend</text></g><!--link Operador to consultarProveedores--><g id="link_Operador_consultarProveedores"><path d="M203.4,264.602 C226.21,264.602 252.35,264.602 283.92,264.602 " fill="none" id="Operador-to-consultarProveedores" style="stroke:#181818;stroke-width:1.0;"/><polygon fill="#181818" points="289.92,264.602,280.92,260.602,284.92,264.602,280.92,268.602,289.92,264.602" style="stroke:#181818;stroke-width:1.0;"/></g><!--link Operador to registrarProveedor--><g id="link_Operador_registrarProveedor"><path d="M203.21,284.522 C215.63,291.782 230.18,299.662 244,305.602 C266.28,315.172 285.4002,321.9242 308.5202,328.9642 " fill="none" id="Operador-to-registrarProveedor" style="stroke:#181818;stroke-width:1.0;"/><polygon fill="#181818" points="314.26,330.712,306.8155,324.2638,309.4768,329.2555,304.4851,331.9169,314.26,330.712" style="stroke:#181818;stroke-width:1.0;"/></g><!--link Operador to verProveedor--><g id="link_Operador_verProveedor"><path d="M203.16,244.162 C215.57,236.712 230.13,228.652 244,222.602 C270.19,211.182 294.2485,203.0569 320.5985,195.3969 " fill="none" id="Operador-to-verProveedor" style="stroke:#181818;stroke-width:1.0;"/><polygon fill="#181818" points="326.36,193.722,316.6012,192.3933,321.5588,195.1177,318.8343,200.0753,326.36,193.722" style="stroke:#181818;stroke-width:1.0;"/></g><!--link Operador to editarProveedor--><g id="link_Operador_editarProveedor"><path d="M183.99,224.582 C195.29,194.282 214.71,153.582 244,127.602 C266.32,107.802 290.3023,96.2224 317.6023,87.2124 " fill="none" id="Operador-to-editarProveedor" style="stroke:#181818;stroke-width:1.0;"/><polygon fill="#181818" points="323.3,85.332,313.4998,84.3542,318.5519,86.899,316.0071,91.9511,323.3,85.332" style="stroke:#181818;stroke-width:1.0;"/></g><!--link Operador to eliminarProveedor--><g id="link_Operador_eliminarProveedor"><path d="M183.63,304.882 C194.69,334.932 213.96,374.752 244,398.602 C261.74,412.692 278.0994,420.4189 299.9794,426.6489 " fill="none" id="Operador-to-eliminarProveedor" style="stroke:#181818;stroke-width:1.0;"/><polygon fill="#181818" points="305.75,428.292,298.1894,421.9802,300.9411,426.9227,295.9986,429.6744,305.75,428.292" style="stroke:#181818;stroke-width:1.0;"/></g><!--SRC=[VP5DJuD048Rl_8f9Uz43DNwSJ4FILc98-a6axSdB5aRSbEwIsQNQgF_T1GfriNhRp3lli_FEPFYYGKiWdhvgI3XXhBaKZjfoaJDYEs2nbXJfGuR0tb397VuG2uKnKmWV3i2OnTkKP26IYSmaGRGzZBC2IqLIWbHNf-L7ZVJbvCR4KeILAXXngQ0_NaN1t8-Y4bdz3OiSYINcqGzcuTIV-VFbQ1aivgPXfP1W-EcwRPDXjj3U8weIa23a9FU8HaVLW_ue3AV1f89KepSnUiEDTt5zERpQU32HGXMPPcHxcOAuKSAJq8NSr90dJBdIP225057WNfve5OkQXfRL9TtMfBK9-e2QPUOEpy8aCa0RjST_88DZAZ_Xkfx6DcDL_zD_TtHdVCV5MVzHEH7C7JfG67ZMaFU0xnf5uZZjXLtNExzUg-FCqYpTseIbT6FQugyCtm00]--></g></svg>