<?xml version="1.0" encoding="us-ascii" standalone="no"?><svg xmlns="http://www.w3.org/2000/svg" xmlns:xlink="http://www.w3.org/1999/xlink" contentStyleType="text/css" height="479px" preserveAspectRatio="none" style="width:544px;height:479px;background:#FFFFFF;" version="1.1" viewBox="0 0 544 479" width="544px" zoomAndPan="magnify"><defs/><g><!--cluster Usuarios--><g id="cluster_Usuarios"><path d="M8.5,184.602 L70.5,184.602 A3.75,3.75 0 0 1 73,187.102 L80,209.6699 L216.5,209.6699 A2.5,2.5 0 0 1 219,212.1699 L219,316.102 A2.5,2.5 0 0 1 216.5,318.602 L8.5,318.602 A2.5,2.5 0 0 1 6,316.102 L6,187.102 A2.5,2.5 0 0 1 8.5,184.602 " fill="#FFFFCC" style="stroke:#000000;stroke-width:1.5;"/><line style="stroke:#000000;stroke-width:1.5;" x1="6" x2="80" y1="209.6699" y2="209.6699"/><text fill="#000000" font-family="sans-serif" font-size="14" font-weight="bold" lengthAdjust="spacing" textLength="61" x="10" y="201.5679">Usuarios</text></g><!--cluster Gestor de inventario--><g id="cluster_Gestor de inventario"><path d="M254.5,6.602 L397.5,6.602 A3.75,3.75 0 0 1 400,9.102 L407,31.6699 L534.5,31.6699 A2.5,2.5 0 0 1 537,34.1699 L537,470.102 A2.5,2.5 0 0 1 534.5,472.602 L254.5,472.602 A2.5,2.5 0 0 1 252,470.102 L252,9.102 A2.5,2.5 0 0 1 254.5,6.602 " fill="#C2F0FF" style="stroke:#000000;stroke-width:1.5;"/><line style="stroke:#000000;stroke-width:1.5;" x1="252" x2="407" y1="31.6699" y2="31.6699"/><text fill="#000000" font-family="sans-serif" font-size="14" font-weight="bold" lengthAdjust="spacing" textLength="142" x="256" y="23.5679">Gestor de inventario</text></g><!--entity User--><g id="elem_User"><ellipse cx="49.5" cy="239.102" fill="#F1F1F1" rx="16" ry="16" style="stroke:#181818;stroke-width:0.5;"/><path d="M49.5,259.102 C53.5,259.102 56.5,259.102 60.5,255.102 C68.5,255.102 76.5,263.102 76.5,271.102 L76.5,275.102 C76.5,279.102 72.5,283.102 68.5,283.102 L30.5,283.102 C26.5,283.102 22.5,279.102 22.5,275.102 L22.5,271.102 C22.5,263.102 30.5,255.102 38.5,255.102 C42.5,259.102 45.5,259.102 49.5,259.102 " fill="#F1F1F1" style="stroke:#181818;stroke-width:0.5;"/><text fill="#000000" font-family="sans-serif" font-size="14" lengthAdjust="spacing" textLength="31" x="34" y="298.5679">User</text></g><!--entity Operador--><g id="elem_Operador"><ellipse cx="170.5" cy="239.102" fill="#FFE0E0" rx="16" ry="16" style="stroke:#181818;stroke-width:0.5;"/><path d="M170.5,259.102 C174.5,259.102 177.5,259.102 181.5,255.102 C189.5,255.102 197.5,263.102 197.5,271.102 L197.5,275.102 C197.5,279.102 193.5,283.102 189.5,283.102 L151.5,283.102 C147.5,283.102 143.5,279.102 143.5,275.102 L143.5,271.102 C143.5,263.102 151.5,255.102 159.5,255.102 C163.5,259.102 166.5,259.102 170.5,259.102 " fill="#FFE0E0" style="stroke:#181818;stroke-width:0.5;"/><text fill="#000000" font-family="sans-serif" font-size="14" lengthAdjust="spacing" textLength="65" x="138" y="298.5679">Operador</text></g><g id="elem_consultarProductos"><ellipse cx="394.6973" cy="262.8414" fill="#87CEEB" rx="101.6973" ry="22.7395" style="stroke:#87CEFA;stroke-width:0.5;"/><text fill="#000000" font-family="sans-serif" font-size="14" font-weight="bold" lengthAdjust="spacing" textLength="18" x="312.1973" y="267.5744">(1)</text><text fill="#000000" font-family="sans-serif" font-size="14" lengthAdjust="spacing" textLength="137" x="334.1973" y="267.5744">Consultar inventario</text></g><g id="elem_registrarProducto"><ellipse cx="394.5951" cy="347.821" fill="#87CEEB" rx="126.5951" ry="27.719" style="stroke:#87CEFA;stroke-width:0.5;"/><text fill="#000000" font-family="sans-serif" font-size="14" font-weight="bold" lengthAdjust="spacing" textLength="18" x="285.5494" y="351.7531">(2)</text><text fill="#000000" font-family="sans-serif" font-size="14" lengthAdjust="spacing" textLength="194" x="307.5494" y="351.7531">Registrar un nuevo producto</text></g><g id="elem_verProducto"><ellipse cx="394.5751" cy="174.5848" fill="#87CEEB" rx="85.0751" ry="29.9828" style="stroke:#87CEFA;stroke-width:0.5;"/><text fill="#000000" font-family="sans-serif" font-size="14" font-weight="bold" lengthAdjust="spacing" textLength="18" x="343.0347" y="169.1536">(3)</text><text fill="#000000" font-family="sans-serif" font-size="14" lengthAdjust="spacing" textLength="73" x="365.0347" y="169.1536">Ver Detalle</text><text fill="#000000" font-family="sans-serif" font-size="14" lengthAdjust="spacing" textLength="104" x="340.5347" y="188.2215">de un producto</text></g><g id="elem_editarProducto"><ellipse cx="394.5347" cy="67.5089" fill="#87CEEB" rx="102.5347" ry="22.9069" style="stroke:#87CEFA;stroke-width:0.5;"/><text fill="#000000" font-family="sans-serif" font-size="14" font-weight="bold" lengthAdjust="spacing" textLength="30" x="311.0347" y="72.2419">(3.1)</text><text fill="#000000" font-family="sans-serif" font-size="14" lengthAdjust="spacing" textLength="127" x="345.0347" y="72.2419">Editar un producto</text></g><g id="elem_eliminarProducto"><ellipse cx="394.7183" cy="433.8457" fill="#87CEEB" rx="104.2183" ry="23.2437" style="stroke:#87CEFA;stroke-width:0.5;"/><text fill="#000000" font-family="sans-serif" font-size="14" font-weight="bold" lengthAdjust="spacing" textLength="18" x="309.2183" y="438.5786">(4)</text><text fill="#000000" font-family="sans-serif" font-size="14" lengthAdjust="spacing" textLength="143" x="331.2183" y="438.5786">Eliminar un producto</text></g><!--reverse link User to Operador--><g id="link_User_Operador"><path d="M95.21,262.602 C113.16,262.602 118.91,262.602 137.82,262.602 " fill="none" id="User-backto-Operador" style="stroke:#181818;stroke-width:1.0;"/><polygon fill="none" points="77.21,262.602,95.21,268.602,95.21,256.602,77.21,262.602" style="stroke:#181818;stroke-width:1.0;"/></g><!--link editarProducto to verProducto--><g id="link_editarProducto_verProducto"><path d="M394.5,90.682 C394.5,106.432 394.5,121.452 394.5,138.512 " fill="none" id="editarProducto-to-verProducto" style="stroke:#181818;stroke-width:1.0;stroke-dasharray:7.0,7.0;"/><polygon fill="#181818" points="394.5,144.512,398.5,135.512,394.5,139.512,390.5,135.512,394.5,144.512" style="stroke:#181818;stroke-width:1.0;"/><text fill="#000000" font-family="sans-serif" font-size="13" lengthAdjust="spacing" textLength="42" x="361" y="122.999">extend</text></g><!--link Operador to consultarProductos--><g id="link_Operador_consultarProductos"><path d="M203.31,262.602 C226.93,262.602 254.53,262.602 286.93,262.602 " fill="none" id="Operador-to-consultarProductos" style="stroke:#181818;stroke-width:1.0;"/><polygon fill="#181818" points="292.93,262.602,283.93,258.602,287.93,262.602,283.93,266.602,292.93,262.602" style="stroke:#181818;stroke-width:1.0;"/></g><!--link Operador to registrarProducto--><g id="link_Operador_registrarProducto"><path d="M203.25,282.032 C215.67,289.112 230.22,296.802 244,302.602 C265.74,311.752 284.2126,318.1493 306.7326,324.8993 " fill="none" id="Operador-to-registrarProducto" style="stroke:#181818;stroke-width:1.0;"/><polygon fill="#181818" points="312.48,326.622,305.0074,320.2064,307.6905,325.1864,302.7105,327.8695,312.48,326.622" style="stroke:#181818;stroke-width:1.0;"/></g><!--link Operador to verProducto--><g id="link_Operador_verProducto"><path d="M203.31,243.312 C215.73,236.242 230.27,228.522 244,222.602 C270.53,211.152 294.9815,202.7039 321.2515,194.6839 " fill="none" id="Operador-to-verProducto" style="stroke:#181818;stroke-width:1.0;"/><polygon fill="#181818" points="326.99,192.932,317.2143,191.7342,322.2079,194.3919,319.5501,199.3856,326.99,192.932" style="stroke:#181818;stroke-width:1.0;"/></g><!--link Operador to editarProducto--><g id="link_Operador_editarProducto"><path d="M184.36,222.322 C195.77,192.352 215.15,152.342 244,126.602 C266.17,106.822 290.0815,95.1901 317.0915,86.1301 " fill="none" id="Operador-to-editarProducto" style="stroke:#181818;stroke-width:1.0;"/><polygon fill="#181818" points="322.78,84.222,312.9752,83.2918,318.0396,85.8121,315.5193,90.8765,322.78,84.222" style="stroke:#181818;stroke-width:1.0;"/></g><!--link Operador to eliminarProducto--><g id="link_Operador_eliminarProducto"><path d="M184.41,302.902 C195.7,331.912 214.92,369.802 244,392.602 C261.69,406.462 277.9627,414.0325 299.6527,420.1125 " fill="none" id="Operador-to-eliminarProducto" style="stroke:#181818;stroke-width:1.0;"/><polygon fill="#181818" points="305.43,421.732,297.8437,415.4513,300.6156,420.3824,295.6844,423.1543,305.43,421.732" style="stroke:#181818;stroke-width:1.0;"/></g><!--SRC=[TP7BJiCm44Nt_efHku55YdYiK1MfBH6Ar9T8ougD6m_1Qcf7jbEeW7_7UIeExSxsdNjcxZZ5TmD6WkB9Xm765SQ6Iq7qdekCAde06Xkf8dDA4UWdQdb0qb5pZJ7L2Dy4O4hZVQ9aBjXCfb91j3zDqnmBHIg6gdgT5vqQwPUGpBfeWh3LELLSQXXEjr6u3AAeO9RThOQglQmoL9JPmp1ShEV18bXk9fjmjIIseYY4yO_djLNT5eDdr0M18N1nH66AXWCOJjRhUJWh8MMG9jHWlFElRg_7DpiVPbBeFBKEnqern8smLfBbTaBT9znLX1TCk3RA4d818iUZXAosb23Lw0sepxclEAysuXCQcjeVUHCsYyKve2DUHepgE07Zffh4iMBvVCdzK7jJVk3YdBiMMh_TFN6HCFAxypq2VXaKZ93sLptFFxTJH_-_AaVkBi0HUl5ShJ_y7m00]--></g></svg>