<?xml version="1.0" encoding="us-ascii" standalone="no"?><svg xmlns="http://www.w3.org/2000/svg" xmlns:xlink="http://www.w3.org/1999/xlink" contentStyleType="text/css" height="363px" preserveAspectRatio="none" style="width:492px;height:363px;background:#FFFFFF;" version="1.1" viewBox="0 0 492 363" width="492px" zoomAndPan="magnify"><defs/><g><!--cluster Gestor de quejas--><g id="cluster_Gestor de quejas"><path d="M107,6.602 L224,6.602 A3.75,3.75 0 0 1 226.5,9.102 L233.5,31.6699 L374,31.6699 A2.5,2.5 0 0 1 376.5,34.1699 L376.5,354.102 A2.5,2.5 0 0 1 374,356.602 L107,356.602 A2.5,2.5 0 0 1 104.5,354.102 L104.5,9.102 A2.5,2.5 0 0 1 107,6.602 " fill="#C2F0FF" style="stroke:#000000;stroke-width:1.5;"/><line style="stroke:#000000;stroke-width:1.5;" x1="104.5" x2="233.5" y1="31.6699" y2="31.6699"/><text fill="#000000" font-family="sans-serif" font-size="14" font-weight="bold" lengthAdjust="spacing" textLength="116" x="108.5" y="23.5679">Gestor de quejas</text></g><g id="elem_consultarQuejas"><ellipse cx="240.3079" cy="144.4636" fill="#87CEEB" rx="92.3079" ry="20.8616" style="stroke:#87CEFA;stroke-width:0.5;"/><text fill="#000000" font-family="sans-serif" font-size="14" font-weight="bold" lengthAdjust="spacing" textLength="18" x="169.3079" y="149.1965">(1)</text><text fill="#000000" font-family="sans-serif" font-size="14" lengthAdjust="spacing" textLength="114" x="191.3079" y="149.1965">Consultar quejas</text></g><g id="elem_registrarQueja"><ellipse cx="240.3284" cy="227.4677" fill="#87CEEB" rx="119.8284" ry="26.3657" style="stroke:#87CEFA;stroke-width:0.5;"/><text fill="#000000" font-family="sans-serif" font-size="14" font-weight="bold" lengthAdjust="spacing" textLength="18" x="137.4384" y="231.9676">(2)</text><text fill="#000000" font-family="sans-serif" font-size="14" lengthAdjust="spacing" textLength="179" x="159.4384" y="231.9676">Registrar una nueva queja</text></g><g id="elem_verQueja"><ellipse cx="240.5399" cy="314.41" fill="#87CEEB" rx="114.5399" ry="25.308" style="stroke:#87CEFA;stroke-width:0.5;"/><text fill="#000000" font-family="sans-serif" font-size="14" font-weight="bold" lengthAdjust="spacing" textLength="18" x="143.0399" y="319.1429">(3)</text><text fill="#000000" font-family="sans-serif" font-size="14" lengthAdjust="spacing" textLength="167" x="165.0399" y="319.1429">Ver detalle de una Queja</text></g><g id="elem_editarQueja"><ellipse cx="240.6483" cy="66.4316" fill="#87CEEB" rx="97.1483" ry="21.8297" style="stroke:#87CEFA;stroke-width:0.5;"/><text fill="#000000" font-family="sans-serif" font-size="14" font-weight="bold" lengthAdjust="spacing" textLength="30" x="163.6483" y="71.1646">(3.1)</text><text fill="#000000" font-family="sans-serif" font-size="14" lengthAdjust="spacing" textLength="114" x="197.6483" y="71.1646">Editar una Queja</text></g><!--entity Operador--><g id="elem_Operador"><ellipse cx="453" cy="91.6699" fill="#FFE0E0" rx="16" ry="16" style="stroke:#181818;stroke-width:0.5;"/><path d="M453,111.6699 C457,111.6699 460,111.6699 464,107.6699 C472,107.6699 480,115.6699 480,123.6699 L480,127.6699 C480,131.6699 476,135.6699 472,135.6699 L434,135.6699 C430,135.6699 426,131.6699 426,127.6699 L426,123.6699 C426,115.6699 434,107.6699 442,107.6699 C446,111.6699 449,111.6699 453,111.6699 " fill="#FFE0E0" style="stroke:#181818;stroke-width:0.5;"/><text fill="#000000" font-family="sans-serif" font-size="14" lengthAdjust="spacing" textLength="65" x="420.5" y="151.1358">Operador</text><text fill="#000000" font-family="sans-serif" font-size="14" font-style="italic" lengthAdjust="spacing" textLength="42" x="432" y="71.0679">&#171;User&#187;</text></g><!--entity Cliente--><g id="elem_Cliente"><ellipse cx="33" cy="213.6699" fill="#C2F0FF" rx="16" ry="16" style="stroke:#181818;stroke-width:0.5;"/><path d="M33,233.6699 C37,233.6699 40,233.6699 44,229.6699 C52,229.6699 60,237.6699 60,245.6699 L60,249.6699 C60,253.6699 56,257.6699 52,257.6699 L14,257.6699 C10,257.6699 6,253.6699 6,249.6699 L6,245.6699 C6,237.6699 14,229.6699 22,229.6699 C26,233.6699 29,233.6699 33,233.6699 " fill="#C2F0FF" style="stroke:#181818;stroke-width:0.5;"/><text fill="#000000" font-family="sans-serif" font-size="14" lengthAdjust="spacing" textLength="47" x="9.5" y="273.1358">Cliente</text><text fill="#000000" font-family="sans-serif" font-size="14" font-style="italic" lengthAdjust="spacing" textLength="42" x="12" y="193.0679">&#171;User&#187;</text></g><!--reverse link consultarQuejas to Operador--><g id="link_consultarQuejas_Operador"><path d="M318.6693,130.3075 C355.1593,123.5375 391.87,116.742 420.24,111.482 " fill="none" id="consultarQuejas-backto-Operador" style="stroke:#181818;stroke-width:1.0;"/><polygon fill="#181818" points="312.77,131.402,322.3487,133.6931,317.6861,130.4899,320.8893,125.8273,312.77,131.402" style="stroke:#181818;stroke-width:1.0;"/></g><!--reverse link editarQueja to Operador--><g id="link_editarQueja_Operador"><path d="M322.2096,81.5549 C357.8896,88.1649 392.79,94.632 420.25,99.722 " fill="none" id="editarQueja-backto-Operador" style="stroke:#181818;stroke-width:1.0;"/><polygon fill="#181818" points="316.31,80.462,324.4308,86.0345,321.2263,81.3728,325.8881,78.1683,316.31,80.462" style="stroke:#181818;stroke-width:1.0;"/></g><!--link Cliente to consultarQuejas--><g id="link_Cliente_consultarQuejas"><path d="M60.73,205.702 C71.36,197.842 84.01,189.482 96.5,183.602 C119.55,172.752 140.3448,165.9394 164.3148,159.8494 " fill="none" id="Cliente-to-consultarQuejas" style="stroke:#181818;stroke-width:1.0;"/><polygon fill="#181818" points="170.13,158.372,160.4222,156.7113,165.284,159.6032,162.3921,164.465,170.13,158.372" style="stroke:#181818;stroke-width:1.0;"/></g><!--link Cliente to verQueja--><g id="link_Cliente_verQueja"><path d="M60.5,249.102 C71.2,257.012 83.97,265.502 96.5,271.602 C116.78,281.472 134.0405,287.8765 155.5905,294.3065 " fill="none" id="Cliente-to-verQueja" style="stroke:#181818;stroke-width:1.0;"/><polygon fill="#181818" points="161.34,296.022,153.8594,289.6157,156.5487,294.5924,151.572,297.2817,161.34,296.022" style="stroke:#181818;stroke-width:1.0;"/></g><!--link Cliente to registrarQueja--><g id="link_Cliente_registrarQueja"><path d="M60.87,227.602 C76.64,227.602 91.81,227.602 114.05,227.602 " fill="none" id="Cliente-to-registrarQueja" style="stroke:#181818;stroke-width:1.0;"/><polygon fill="#181818" points="120.05,227.602,111.05,223.602,115.05,227.602,111.05,231.602,120.05,227.602" style="stroke:#181818;stroke-width:1.0;"/></g><!--SRC=[TL1DJy904BttLqpmeWSqwhLf0arZI0eKGUz3EzQLPRVExcA8yR_R3rfgrTlcVUsR9-d5WjN08d-ra0ccr0gjFBCJga36FM1gDQ_jKHBW1nczfnxf3ALe23uzW2cckvorKrcefMPOxuvJwQXYD6V43HfN7xNKb-VLyR0iY34h7xx_P8Y302vcyoIEvj5YCzdCbekJBfI2bAMUR98ayIniD5vHLi2SOFH0ff9d1E-Etj2CVWYhjctpaRyDBc-l_9jj0A5MnacBtBdGGDg2gneRMkyQwoFbmbWkhKuXA4S7R4Bg36xPEcCOSTz4F5DLsA8ibowBLpchBk50_tYlJzsZJDZJxsSNrM1ZBBVkLXwxOXpykcn0zyrUE_pu3r-VwthsmS7vtm00]--></g></svg>