<?xml version="1.0" encoding="us-ascii" standalone="no"?><svg xmlns="http://www.w3.org/2000/svg" xmlns:xlink="http://www.w3.org/1999/xlink" contentStyleType="text/css" height="275px" preserveAspectRatio="none" style="width:492px;height:275px;background:#FFFFFF;" version="1.1" viewBox="0 0 492 275" width="492px" zoomAndPan="magnify"><defs/><g><!--cluster Gestor de quejas--><g id="cluster_Gestor de quejas"><path d="M107,6.602 L224,6.602 A3.75,3.75 0 0 1 226.5,9.102 L233.5,31.6699 L374,31.6699 A2.5,2.5 0 0 1 376.5,34.1699 L376.5,266.102 A2.5,2.5 0 0 1 374,268.602 L107,268.602 A2.5,2.5 0 0 1 104.5,266.102 L104.5,9.102 A2.5,2.5 0 0 1 107,6.602 " fill="none" style="stroke:#000000;stroke-width:1.5;"/><line style="stroke:#000000;stroke-width:1.5;" x1="104.5" x2="233.5" y1="31.6699" y2="31.6699"/><text fill="#000000" font-family="sans-serif" font-size="14" font-weight="bold" lengthAdjust="spacing" textLength="116" x="108.5" y="23.5679">Gestor de quejas</text></g><g id="elem_consultarQuejas"><ellipse cx="240.3079" cy="142.4636" fill="#F1F1F1" rx="92.3079" ry="20.8616" style="stroke:#181818;stroke-width:0.5;"/><text fill="#000000" font-family="sans-serif" font-size="14" font-weight="bold" lengthAdjust="spacing" textLength="18" x="169.3079" y="147.1965">(1)</text><text fill="#000000" font-family="sans-serif" font-size="14" lengthAdjust="spacing" textLength="114" x="191.3079" y="147.1965">Consultar quejas</text></g><g id="elem_registrarQueja"><ellipse cx="240.3284" cy="225.4677" fill="#F1F1F1" rx="119.8284" ry="26.3657" style="stroke:#181818;stroke-width:0.5;"/><text fill="#000000" font-family="sans-serif" font-size="14" font-weight="bold" lengthAdjust="spacing" textLength="18" x="137.4384" y="229.9676">(2)</text><text fill="#000000" font-family="sans-serif" font-size="14" lengthAdjust="spacing" textLength="179" x="159.4384" y="229.9676">Registrar una nueva queja</text></g><g id="elem_editarQueja"><ellipse cx="240.3079" cy="65.4636" fill="#F1F1F1" rx="92.3079" ry="20.8616" style="stroke:#181818;stroke-width:0.5;"/><text fill="#000000" font-family="sans-serif" font-size="14" font-weight="bold" lengthAdjust="spacing" textLength="18" x="169.3079" y="70.1965">(3)</text><text fill="#000000" font-family="sans-serif" font-size="14" lengthAdjust="spacing" textLength="114" x="191.3079" y="70.1965">Editar una Queja</text></g><!--entity Operador--><g id="elem_Operador"><ellipse cx="453" cy="90.6699" fill="#F1F1F1" rx="16" ry="16" style="stroke:#181818;stroke-width:0.5;"/><path d="M453,110.6699 C457,110.6699 460,110.6699 464,106.6699 C472,106.6699 480,114.6699 480,122.6699 L480,126.6699 C480,130.6699 476,134.6699 472,134.6699 L434,134.6699 C430,134.6699 426,130.6699 426,126.6699 L426,122.6699 C426,114.6699 434,106.6699 442,106.6699 C446,110.6699 449,110.6699 453,110.6699 " fill="#F1F1F1" style="stroke:#181818;stroke-width:0.5;"/><text fill="#000000" font-family="sans-serif" font-size="14" lengthAdjust="spacing" textLength="65" x="420.5" y="150.1358">Operador</text><text fill="#000000" font-family="sans-serif" font-size="14" font-style="italic" lengthAdjust="spacing" textLength="42" x="432" y="70.0679">&#171;User&#187;</text></g><!--entity Cliente--><g id="elem_Cliente"><ellipse cx="33" cy="128.6699" fill="#F1F1F1" rx="16" ry="16" style="stroke:#181818;stroke-width:0.5;"/><path d="M33,148.6699 C37,148.6699 40,148.6699 44,144.6699 C52,144.6699 60,152.6699 60,160.6699 L60,164.6699 C60,168.6699 56,172.6699 52,172.6699 L14,172.6699 C10,172.6699 6,168.6699 6,164.6699 L6,160.6699 C6,152.6699 14,144.6699 22,144.6699 C26,148.6699 29,148.6699 33,148.6699 " fill="#F1F1F1" style="stroke:#181818;stroke-width:0.5;"/><text fill="#000000" font-family="sans-serif" font-size="14" lengthAdjust="spacing" textLength="47" x="9.5" y="188.1358">Cliente</text><text fill="#000000" font-family="sans-serif" font-size="14" font-style="italic" lengthAdjust="spacing" textLength="42" x="12" y="108.0679">&#171;User&#187;</text></g><!--reverse link consultarQuejas to Operador--><g id="link_consultarQuejas_Operador"><path d="M319.2546,128.5661 C355.7046,121.9861 392.2,115.392 420.43,110.302 " fill="none" id="consultarQuejas-backto-Operador" style="stroke:#181818;stroke-width:1.0;"/><polygon fill="#181818" points="313.35,129.632,322.9174,131.9695,318.2705,128.7437,321.4962,124.0968,313.35,129.632" style="stroke:#181818;stroke-width:1.0;"/></g><!--reverse link editarQueja to Operador--><g id="link_editarQueja_Operador"><path d="M318.6693,79.8965 C355.1593,86.6665 391.87,93.462 420.24,98.722 " fill="none" id="editarQueja-backto-Operador" style="stroke:#181818;stroke-width:1.0;"/><polygon fill="#181818" points="312.77,78.802,320.8893,84.3766,317.6861,79.7141,322.3487,76.5109,312.77,78.802" style="stroke:#181818;stroke-width:1.0;"/></g><!--link Cliente to consultarQuejas--><g id="link_Cliente_consultarQuejas"><path d="M60.87,142.602 C83.17,142.602 110.25,142.602 141.9,142.602 " fill="none" id="Cliente-to-consultarQuejas" style="stroke:#181818;stroke-width:1.0;"/><polygon fill="#181818" points="147.9,142.602,138.9,138.602,142.9,142.602,138.9,146.602,147.9,142.602" style="stroke:#181818;stroke-width:1.0;"/></g><!--link Cliente to editarQueja--><g id="link_Cliente_editarQueja"><path d="M60.72,123.472 C71.45,116.462 84.18,108.942 96.5,103.602 C119.95,93.442 140.9581,86.8932 164.9881,80.9032 " fill="none" id="Cliente-to-editarQueja" style="stroke:#181818;stroke-width:1.0;"/><polygon fill="#181818" points="170.81,79.452,161.1097,77.7476,165.9585,80.6613,163.0447,85.5101,170.81,79.452" style="stroke:#181818;stroke-width:1.0;"/></g><!--link Cliente to registrarQueja--><g id="link_Cliente_registrarQueja"><path d="M60.6,160.732 C71.42,167.572 84.24,175.042 96.5,180.602 C117.48,190.112 135.3115,196.6374 157.1715,203.4474 " fill="none" id="Cliente-to-registrarQueja" style="stroke:#181818;stroke-width:1.0;"/><polygon fill="#181818" points="162.9,205.232,155.497,198.7361,158.1263,203.7448,153.1176,206.3741,162.9,205.232" style="stroke:#181818;stroke-width:1.0;"/></g><!--SRC=[RP31JiCm38RlUGfh9tQe472jSfaGHpGG3-2bNXVM9SLsG0ZnxklIjQkwtQBlz_ShTaDR1Ot0ljufL9x9gO_1oDw75XaFW4uZl-jlGu0_9F50ncG6hoqnLjsZB3-4sDepNpMUWj85cnRT7ck2nGl9QQ8Y-4hqYRA0FmEGX1nA5vSRU_UmBEyt5bOnI6eKUPn40JV0TMPpzR5NtwZsejofAI24HD_Ob-GE7jBSCQzuwYkUAwzdVpsQb66l_Hiphb-ajh1NVvl5KzaC5ofkUDDiAatvR8SZ]--></g></svg>